<svg xmlns="http://www.w3.org/2000/svg" width="1637" height="1033" viewBox="0 0 1637 1033"><rect width="1366" height="768" transform="translate(144 158)" fill="#323070"/><g transform="translate(283 862)" fill="none" stroke="#808ac2" stroke-width="25" opacity="0.21" style="mix-blend-mode:color-burn;isolation:isolate"><circle cx="85.5" cy="85.5" r="85.5" stroke="none"/><circle cx="85.5" cy="85.5" r="73" fill="none"/></g><g transform="translate(0 151)" fill="none" stroke="#808ac2" stroke-width="38" opacity="0.21" style="mix-blend-mode:color-burn;isolation:isolate"><circle cx="135" cy="135" r="135" stroke="none"/><circle cx="135" cy="135" r="116" fill="none"/></g><g transform="translate(1383 499)" fill="none" stroke="#808ac2" stroke-width="38" opacity="0.21" style="mix-blend-mode:color-burn;isolation:isolate"><circle cx="127" cy="127" r="127" stroke="none"/><circle cx="127" cy="127" r="108" fill="none"/></g><g transform="translate(775)" fill="none" stroke="#808ac2" stroke-width="38" opacity="0.21" style="mix-blend-mode:color-burn;isolation:isolate"><circle cx="115" cy="115" r="115" stroke="none"/><circle cx="115" cy="115" r="96" fill="none"/></g><g transform="translate(222 753)" fill="none" stroke="#808ac2" stroke-width="20" opacity="0.21" style="mix-blend-mode:color-burn;isolation:isolate"><circle cx="48" cy="48" r="48" stroke="none"/><circle cx="48" cy="48" r="38" fill="none"/></g><g transform="translate(174 499)" fill="none" stroke="#808ac2" stroke-width="15" opacity="0.21" style="mix-blend-mode:color-burn;isolation:isolate"><circle cx="35.5" cy="35.5" r="35.5" stroke="none"/><circle cx="35.5" cy="35.5" r="28" fill="none"/></g><g transform="translate(283 131)" fill="none" stroke="#808ac2" stroke-width="15" opacity="0.21" style="mix-blend-mode:color-burn;isolation:isolate"><circle cx="35.5" cy="35.5" r="35.5" stroke="none"/><circle cx="35.5" cy="35.5" r="28" fill="none"/></g><g transform="translate(82 639)" fill="none" stroke="#808ac2" stroke-width="25" opacity="0.21" style="mix-blend-mode:color-burn;isolation:isolate"><circle cx="62.5" cy="62.5" r="62.5" stroke="none"/><circle cx="62.5" cy="62.5" r="50" fill="none"/></g><g transform="translate(1410 801)" fill="none" stroke="#808ac2" stroke-width="20" opacity="0.21" style="mix-blend-mode:color-burn;isolation:isolate"><circle cx="41.5" cy="41.5" r="41.5" stroke="none"/><circle cx="41.5" cy="41.5" r="31.5" fill="none"/></g><g transform="translate(1195 147)" fill="none" stroke="#808ac2" stroke-width="20" opacity="0.21" style="mix-blend-mode:color-burn;isolation:isolate"><circle cx="41.5" cy="41.5" r="41.5" stroke="none"/><circle cx="41.5" cy="41.5" r="31.5" fill="none"/></g><g transform="translate(642 181)" fill="none" stroke="#808ac2" stroke-width="10" opacity="0.21" style="mix-blend-mode:color-burn;isolation:isolate"><circle cx="26" cy="26" r="26" stroke="none"/><circle cx="26" cy="26" r="21" fill="none"/></g><g transform="translate(1410 182)" fill="none" stroke="#808ac2" stroke-width="25" opacity="0.21" style="mix-blend-mode:color-burn;isolation:isolate"><circle cx="60" cy="60" r="60" stroke="none"/><circle cx="60" cy="60" r="47.5" fill="none"/></g><g transform="translate(490 122)" fill="none" stroke="#808ac2" stroke-width="25" opacity="0.21" style="mix-blend-mode:color-burn;isolation:isolate"><circle cx="54" cy="54" r="54" stroke="none"/><circle cx="54" cy="54" r="41.5" fill="none"/></g><g transform="translate(1055 870)" fill="none" stroke="#808ac2" stroke-width="25" opacity="0.21" style="mix-blend-mode:color-burn;isolation:isolate"><circle cx="56" cy="56" r="56" stroke="none"/><circle cx="56" cy="56" r="43.5" fill="none"/></g><g transform="translate(1315 884)" fill="none" stroke="#808ac2" stroke-width="25" opacity="0.21" style="mix-blend-mode:color-burn;isolation:isolate"><circle cx="56" cy="56" r="56" stroke="none"/><circle cx="56" cy="56" r="43.5" fill="none"/></g><g transform="translate(563 845)" fill="none" stroke="#808ac2" stroke-width="25" opacity="0.21" style="mix-blend-mode:color-burn;isolation:isolate"><circle cx="53" cy="53" r="53" stroke="none"/><circle cx="53" cy="53" r="40.5" fill="none"/></g></svg>