<svg xmlns="http://www.w3.org/2000/svg" xmlns:xlink="http://www.w3.org/1999/xlink" width="77" height="77" viewBox="0 0 77 77"><defs><linearGradient id="a" x1="0.202" y1="-0.148" x2="0.5" y2="1.195" gradientUnits="objectBoundingBox"><stop offset="0" stop-color="#f17373"/><stop offset="1" stop-color="#8e1616"/></linearGradient><filter id="b" x="0" y="0" width="77" height="77" filterUnits="userSpaceOnUse"><feOffset dy="3" input="SourceAlpha"/><feGaussianBlur stdDeviation="3" result="c"/><feFlood flood-opacity="0.149"/><feComposite operator="in" in2="c"/><feComposite in="SourceGraphic"/></filter><linearGradient id="d" x1="-0.094" y1="0.424" x2="1.204" y2="0.692" gradientUnits="objectBoundingBox"><stop offset="0" stop-color="#fcf4ea"/><stop offset="1" stop-color="#aba8a5"/></linearGradient></defs><g transform="translate(9 6)"><g transform="matrix(1, 0, 0, 1, -9, -6)" filter="url(#b)"><g transform="translate(9 6)" stroke="#e8c19a" stroke-width="3" fill="url(#a)"><rect width="59" height="59" rx="14" stroke="none"/><rect x="1.5" y="1.5" width="56" height="56" rx="12.5" fill="none"/></g></g><g transform="translate(-1019 -607)"><rect width="19.776" height="33.827" rx="2" transform="translate(1039 620)" fill="#9b3838" opacity="0.95"/><path d="M0,1047.063,12.483,1040v2.676h9.676a1,1,0,0,1,1,1v6.847a1,1,0,0,1-1,1H12.483v2.6Z" transform="translate(1024 -411)" fill="url(#d)"/></g></g></svg>