<svg xmlns="http://www.w3.org/2000/svg" xmlns:xlink="http://www.w3.org/1999/xlink" width="277" height="270.197" viewBox="0 0 277 270.197"><defs><linearGradient id="a" x1="0.202" y1="-0.148" x2="0.335" y2="1.22" gradientUnits="objectBoundingBox"><stop offset="0" stop-color="#4ccdfe"/><stop offset="1" stop-color="#228894"/></linearGradient><filter id="b" x="0" y="0" width="277" height="270.197" filterUnits="userSpaceOnUse"><feOffset dx="2" dy="6" input="SourceAlpha"/><feGaussianBlur stdDeviation="4.5" result="c"/><feFlood flood-color="#04162e" flood-opacity="0.18"/><feComposite operator="in" in2="c"/><feComposite in="SourceGraphic"/></filter><linearGradient id="d" x1="0.129" y1="-0.272" x2="0.2" y2="1.082" gradientUnits="objectBoundingBox"><stop offset="0" stop-color="#4cfef2"/><stop offset="1" stop-color="#3ca186"/></linearGradient><filter id="e" x="38.5" y="137.069" width="198" height="95.938" filterUnits="userSpaceOnUse"><feOffset dx="1" dy="5" input="SourceAlpha"/><feGaussianBlur stdDeviation="3" result="f"/><feFlood flood-color="#1e3040" flood-opacity="0.122"/><feComposite operator="in" in2="f"/><feComposite in="SourceGraphic"/></filter><linearGradient id="g" x1="0.5" y1="-0.275" x2="1" y2="1.472" gradientUnits="objectBoundingBox"><stop offset="0" stop-color="#fbf5eb"/><stop offset="1" stop-color="#a2836c"/></linearGradient><filter id="h" x="89.5" y="75.142" width="18.85" height="29.864" filterUnits="userSpaceOnUse"><feOffset dy="2" input="SourceAlpha"/><feGaussianBlur stdDeviation="1" result="i"/><feFlood flood-opacity="0.078"/><feComposite operator="in" in2="i"/><feComposite in="SourceGraphic"/></filter><linearGradient id="j" x1="0.5" y1="-0.275" x2="-0.326" y2="1.375" xlink:href="#g"/><filter id="k" x="165.65" y="75.142" width="18.85" height="29.864" filterUnits="userSpaceOnUse"><feOffset dy="2" input="SourceAlpha"/><feGaussianBlur stdDeviation="1" result="l"/><feFlood flood-opacity="0.078"/><feComposite operator="in" in2="l"/><feComposite in="SourceGraphic"/></filter><linearGradient id="m" x1="0.261" y1="0.129" x2="0.545" y2="1.492" xlink:href="#g"/><filter id="n" x="94.514" y="39.5" width="84.935" height="104.835" filterUnits="userSpaceOnUse"><feOffset dy="4" input="SourceAlpha"/><feGaussianBlur stdDeviation="3" result="o"/><feFlood flood-opacity="0.078"/><feComposite operator="in" in2="o"/><feComposite in="SourceGraphic"/></filter><linearGradient id="p" x1="0.198" y1="-0.323" x2="0.34" y2="0.589" gradientUnits="objectBoundingBox"><stop offset="0" stop-color="#818fb4"/><stop offset="1" stop-color="#31236d"/></linearGradient><filter id="q" x="100.514" y="37.5" width="73.155" height="44.181" filterUnits="userSpaceOnUse"><feOffset dy="1" input="SourceAlpha"/><feGaussianBlur stdDeviation="1" result="r"/><feFlood flood-color="#bfa895" flood-opacity="0.69"/><feComposite operator="in" in2="r"/><feComposite in="SourceGraphic"/></filter></defs><g transform="translate(-279.5 -226.5)"><g transform="matrix(1, 0, 0, 1, 279.5, 226.5)" filter="url(#b)"><path d="M23.81,0H226.19A23.81,23.81,0,0,1,250,23.81V219.388a23.81,23.81,0,0,1-23.81,23.81H23.81A23.81,23.81,0,0,1,0,219.388V23.81A23.81,23.81,0,0,1,23.81,0Z" transform="translate(11.5 7.5)" fill="url(#a)"/></g><g transform="translate(0 -2.628)"><g transform="matrix(1, 0, 0, 1, 279.5, 229.13)" filter="url(#e)"><path d="M28,0H152a28,28,0,0,1,28,28V69.938a8,8,0,0,1-8,8H8a8,8,0,0,1-8-8V28A28,28,0,0,1,28,0Z" transform="translate(46.5 141.07)" fill="url(#d)"/></g><g transform="translate(372 273.628)"><g transform="matrix(1, 0, 0, 1, -92.5, -44.5)" filter="url(#h)"><rect width="12.85" height="23.864" rx="6.425" transform="translate(92.5 76.14)" fill="url(#g)"/></g><g transform="matrix(1, 0, 0, 1, -92.5, -44.5)" filter="url(#k)"><rect width="12.85" height="23.864" rx="6.425" transform="translate(168.65 76.14)" fill="url(#j)"/></g><g transform="matrix(1, 0, 0, 1, -92.5, -44.5)" filter="url(#n)"><path d="M16,0H50.935a16,16,0,0,1,16,16V64.835a22,22,0,0,1-22,22H22a22,22,0,0,1-22-22V16A16,16,0,0,1,16,0Z" transform="translate(103.51 44.5)" fill="url(#m)"/></g><g transform="matrix(1, 0, 0, 1, -92.5, -44.5)" filter="url(#q)"><path d="M60.267,12.235l-53.357.629L.041,33.031,0,32.947V12A17,17,0,0,1,17-5H50.155a17,17,0,0,1,17,17V33.182Z" transform="translate(103.51 44.5)" fill="url(#p)"/></g></g></g></g></svg>