<svg id="icContact_btn" xmlns="http://www.w3.org/2000/svg" xmlns:xlink="http://www.w3.org/1999/xlink" width="78" height="78" viewBox="0 0 78 78">
  <defs>
    <radialGradient id="radial-gradient" cx="0.5" cy="0.5" r="1.363" gradientTransform="translate(0 -0.122) scale(1 1.245)" gradientUnits="objectBoundingBox">
      <stop offset="0" stop-color="#7cdceb"/>
      <stop offset="1" stop-color="#092b41"/>
    </radialGradient>
    <filter id="Rectangle_3" x="9" y="21" width="60" height="43" filterUnits="userSpaceOnUse">
      <feOffset dy="3" input="SourceAlpha"/>
      <feGaussianBlur stdDeviation="3" result="blur"/>
      <feFlood flood-opacity="0.161"/>
      <feComposite operator="in" in2="blur"/>
      <feComposite in="SourceGraphic"/>
    </filter>
    <filter id="Polygon_3" x="9.5" y="24.5" width="59" height="27" filterUnits="userSpaceOnUse">
      <feOffset dy="2" input="SourceAlpha"/>
      <feGaussianBlur stdDeviation="1.5" result="blur-2"/>
      <feFlood flood-opacity="0.2"/>
      <feComposite operator="in" in2="blur-2"/>
      <feComposite in="SourceGraphic"/>
    </filter>
  </defs>
  <g id="Rectangle_2" data-name="Rectangle 2" stroke="#f2f8ff" stroke-width="6" fill="url(#radial-gradient)">
    <rect width="78" height="78" rx="14" stroke="none"/>
    <rect x="3" y="3" width="72" height="72" rx="11" fill="none"/>
  </g>
  <g id="Group_8" data-name="Group 8" transform="translate(-830 -394)">
    <g transform="matrix(1, 0, 0, 1, 830, 394)" filter="url(#Rectangle_3)">
      <rect id="Rectangle_3-2" data-name="Rectangle 3" width="42" height="25" rx="3" transform="translate(18 27)" fill="#fff"/>
    </g>
    <g transform="matrix(1, 0, 0, 1, 830, 394)" filter="url(#Polygon_3)">
      <path id="Polygon_3-2" data-name="Polygon 3" d="M23.831.841a2,2,0,0,1,2.337,0l18.8,13.536A2,2,0,0,1,43.8,18H6.2a2,2,0,0,1-1.169-3.623Z" transform="translate(64 45) rotate(180)" fill="#fff"/>
    </g>
  </g>
</svg>
