<svg xmlns="http://www.w3.org/2000/svg" xmlns:xlink="http://www.w3.org/1999/xlink" width="77.866" height="68.725" viewBox="0 0 77.866 68.725"><defs><linearGradient id="a" x1="0.316" y1="-0.271" x2="1.129" y2="1.301" gradientUnits="objectBoundingBox"><stop offset="0" stop-color="#4cfe7b"/><stop offset="1" stop-color="#3b79e3"/></linearGradient><filter id="b" x="0" y="0" width="77.866" height="68.725" filterUnits="userSpaceOnUse"><feOffset dy="3" input="SourceAlpha"/><feGaussianBlur stdDeviation="3" result="c"/><feFlood flood-opacity="0.149"/><feComposite operator="in" in2="c"/><feComposite in="SourceGraphic"/></filter></defs><g transform="translate(9 6)"><g transform="matrix(1, 0, 0, 1, -9, -6)" filter="url(#b)"><g transform="translate(-1.78 -1035.79)" fill="url(#a)"><path d="M 32.59289932250977 1091.017944335938 L 18.43657875061035 1091.017211914063 C 18.16090965270996 1091.017211914063 17.93669891357422 1090.79296875 17.93669891357422 1090.517456054688 L 17.93669891357422 1071.255615234375 L 17.93669891357422 1069.755615234375 L 16.43669891357422 1069.755615234375 L 14.78879928588867 1069.755615234375 C 13.49386882781982 1069.755615234375 12.72495937347412 1068.902221679688 12.43716907501221 1068.103515625 C 12.1492395401001 1067.304443359375 12.19710922241211 1066.156127929688 13.19495868682861 1065.329711914063 L 39.1201286315918 1043.867553710938 C 39.56769943237305 1043.496826171875 40.13365936279297 1043.292846679688 40.71419906616211 1043.292846679688 C 41.29473876953125 1043.292846679688 41.86069869995117 1043.496826171875 42.30783081054688 1043.8671875 L 68.23366546630859 1065.329833984375 C 69.23129272460938 1066.156127929688 69.27915954589844 1067.304443359375 68.99122619628906 1068.103515625 C 68.70343780517578 1068.902221679688 67.93453216552734 1069.755615234375 66.63960266113281 1069.755615234375 L 64.99169921875 1069.755615234375 L 63.49169921875 1069.755615234375 L 63.49169921875 1071.255615234375 L 63.49169921875 1090.517456054688 C 63.49169921875 1090.79296875 63.26749038696289 1091.017211914063 62.99189758300781 1091.017211914063 L 49.32600021362305 1091.017211914063 L 49.32600021362305 1082.894409179688 L 49.32600021362305 1081.394409179688 L 49.02957916259766 1081.394409179688 C 48.05413436889648 1077.77978515625 44.79250717163086 1075.195190429688 40.95989990234375 1075.195190429688 C 37.12683486938477 1075.195190429688 33.86484909057617 1077.77978515625 32.88933181762695 1081.394409179688 L 32.59289932250977 1081.394409179688 L 32.59289932250977 1082.894409179688 L 32.59289932250977 1083.632446289063 L 32.59289932250977 1091.017944335938 Z" stroke="none"/><path d="M 31.09289932250977 1089.517944335938 L 31.09289932250977 1083.632446289063 L 31.09289932250977 1082.894409179688 L 31.09289932250977 1079.894409179688 L 31.81087303161621 1079.894409179688 C 33.28073501586914 1076.223510742188 36.84054183959961 1073.695190429688 40.95989990234375 1073.695190429688 C 45.07883834838867 1073.695190429688 48.63831329345703 1076.223510742188 50.10806274414063 1079.894409179688 L 50.82600021362305 1079.894409179688 L 50.82600021362305 1082.894409179688 L 50.82600021362305 1089.517211914063 L 61.99169921875 1089.517211914063 L 61.99169921875 1071.255615234375 L 61.99169921875 1068.255615234375 L 64.99169921875 1068.255615234375 L 66.63960266113281 1068.255615234375 C 67.22014617919922 1068.255615234375 67.47145843505859 1067.896362304688 67.58003997802734 1067.594970703125 C 67.68876647949219 1067.293212890625 67.72439575195313 1066.855712890625 67.27713012695313 1066.4853515625 L 41.35086441040039 1045.022338867188 C 41.12186431884766 1044.832641601563 40.87824249267578 1044.792846679688 40.71419906616211 1044.792846679688 C 40.55015563964844 1044.792846679688 40.30653381347656 1044.832641601563 40.07666397094727 1045.023071289063 L 14.15172100067139 1066.484985351563 C 13.70399951934814 1066.855712890625 13.73963260650635 1067.293212890625 13.84835433959961 1067.594970703125 C 13.95694351196289 1067.896362304688 14.20825481414795 1068.255615234375 14.78879928588867 1068.255615234375 L 16.43669891357422 1068.255615234375 L 19.43669891357422 1068.255615234375 L 19.43669891357422 1071.255615234375 L 19.43669891357422 1089.517211914063 L 31.09289932250977 1089.517944335938 M 34.09289932250977 1092.51806640625 L 34.09199905395508 1092.51806640625 L 18.43649864196777 1092.517211914063 C 17.33399963378906 1092.517211914063 16.43669891357422 1091.619873046875 16.43669891357422 1090.517456054688 L 16.43669891357422 1071.255615234375 L 14.78879928588867 1071.255615234375 C 11.04119873046875 1071.255615234375 9.351899147033691 1066.564819335938 12.23819923400879 1064.174438476563 L 38.16360092163086 1042.712158203125 C 38.90340042114258 1042.099243164063 39.80879974365234 1041.792846679688 40.71419906616211 1041.792846679688 C 41.61959838867188 1041.792846679688 42.52499771118164 1042.099243164063 43.26479721069336 1042.712158203125 L 69.19020080566406 1064.174438476563 C 72.07649993896484 1066.564819335938 70.38719940185547 1071.255615234375 66.63960266113281 1071.255615234375 L 64.99169921875 1071.255615234375 L 64.99169921875 1090.517456054688 C 64.99169921875 1091.619873046875 64.09439849853516 1092.517211914063 62.99189758300781 1092.517211914063 L 47.82600021362305 1092.517211914063 L 47.82600021362305 1082.894409179688 L 47.78730010986328 1082.894409179688 C 47.41740036010742 1079.360107421875 44.48249816894531 1076.695190429688 40.95989990234375 1076.695190429688 C 37.43639755249023 1076.695190429688 34.50149917602539 1079.360107421875 34.13159942626953 1082.894409179688 L 34.09289932250977 1082.894409179688 L 34.09289932250977 1083.632446289063 L 34.09289932250977 1092.517211914063 L 34.09289932250977 1092.51806640625 Z" stroke="none" fill="#c3f9dd"/></g></g></g></svg>