<svg xmlns="http://www.w3.org/2000/svg" xmlns:xlink="http://www.w3.org/1999/xlink" width="59" height="59" viewBox="0 0 59 59"><defs><radialGradient id="a" cx="0.5" cy="0.5" r="1.384" gradientTransform="translate(0 -0.041) scale(1 1.082)" gradientUnits="objectBoundingBox"><stop offset="0" stop-color="#fe894c"/><stop offset="1" stop-color="#230f00"/></radialGradient></defs><g stroke="#f2f8ff" stroke-width="5" fill="url(#a)"><rect width="59" height="59" rx="10" stroke="none"/><rect x="2.5" y="2.5" width="54" height="54" rx="7.5" fill="none"/></g><g transform="translate(11 11)" fill="none"><path d="M21.278,5.8a3.163,3.163,0,0,1,5.441,2.254h0a3.163,3.163,0,0,0,3.222,3.222h0A3.163,3.163,0,0,1,32.2,16.722h0a3.163,3.163,0,0,0,0,4.557h0a3.163,3.163,0,0,1-2.254,5.441h0a3.163,3.163,0,0,0-3.222,3.222h0A3.163,3.163,0,0,1,21.278,32.2h0a3.163,3.163,0,0,0-4.557,0h0a3.163,3.163,0,0,1-5.441-2.254h0a3.163,3.163,0,0,0-3.222-3.222h0A3.163,3.163,0,0,1,5.8,21.278h0a3.163,3.163,0,0,0,0-4.557h0a3.163,3.163,0,0,1,2.254-5.441h0a3.163,3.163,0,0,0,3.222-3.222h0A3.163,3.163,0,0,1,16.722,5.8h0a3.163,3.163,0,0,0,4.557,0Z" stroke="none"/><path d="M 20.80765151977539 14.62435150146484 C 20.2126636505127 14.7230167388916 19.608154296875 14.77363777160645 19.00000190734863 14.77363777160645 C 18.3918399810791 14.77363777160645 17.78741073608398 14.72303199768066 17.19241523742676 14.62436294555664 C 16.86035346984863 15.08510780334473 16.49082374572754 15.52388572692871 16.08511352539063 15.9372501373291 C 15.6298942565918 16.40106010437012 15.14153671264648 16.82017517089844 14.62432098388672 17.19215774536133 C 14.72298622131348 17.78714370727539 14.77363967895508 18.3918514251709 14.77363967895508 19 C 14.77363967895508 19.60796546936035 14.72305297851563 20.21227073669434 14.62444686889648 20.80708312988281 C 15.14090538024902 21.17931747436523 15.62946319580078 21.59857749938965 16.0850772857666 22.06278610229492 C 16.49079132080078 22.47615814208984 16.86029052734375 22.91489410400391 17.19235801696777 23.37564468383789 C 17.78735160827637 23.2769775390625 18.3918285369873 23.22636222839355 18.9999885559082 23.22636222839355 C 19.6081428527832 23.22636222839355 20.21259307861328 23.27697372436523 20.80758285522461 23.37563896179199 C 21.1396427154541 22.91489028930664 21.50914573669434 22.47614288330078 21.91485214233398 22.06277465820313 C 22.37007141113281 21.59895896911621 22.85844802856445 21.1798267364502 23.37566947937012 20.80784034729004 C 23.27700424194336 20.21285247802734 23.22635269165039 19.608154296875 23.22635269165039 19 C 23.22635269165039 18.39203071594238 23.27693939208984 17.78771781921387 23.37554550170898 17.19290351867676 C 22.85908889770508 16.82066535949707 22.37054061889648 16.40141296386719 21.91492652893066 15.93720054626465 C 21.50921249389648 15.52382850646973 21.13971710205078 15.0851001739502 20.80765151977539 14.62435150146484 M 23.5316276550293 4.829315185546875 C 25.17605590820313 4.829315185546875 26.75561714172363 6.119901657104492 26.71936416625977 8.058662414550781 L 26.71936416625977 8.058675765991211 C 26.68621826171875 9.831577301025391 28.11553764343262 11.28120231628418 29.88090705871582 11.28120231628418 C 29.90106964111328 11.28120231628418 29.92107963562012 11.28101539611816 29.94132614135742 11.28063774108887 C 29.96308708190918 11.28023147583008 29.98508453369141 11.28002738952637 30.00668144226074 11.28002548217773 C 32.83855056762695 11.27976417541504 34.25048828125 14.74179840087891 32.19510269165039 16.72172546386719 C 30.90343856811523 17.96596336364746 30.90343856811523 20.03403663635254 32.19510269165039 21.27827453613281 C 34.25036239624023 23.25807952880859 32.83821868896484 26.71997451782227 30.0066967010498 26.71997451782227 C 29.98492813110352 26.71997451782227 29.9632625579834 26.71977233886719 29.94132614135742 26.71936225891113 C 29.92118835449219 26.71898651123047 29.90096092224121 26.71879768371582 29.88090896606445 26.71879768371582 C 28.11538696289063 26.71879768371582 26.68620300292969 28.16832542419434 26.71936416625977 29.94132614135742 C 26.755615234375 31.87991905212402 25.17589950561523 33.17068099975586 23.5316276550293 33.17068099975586 C 22.73725128173828 33.17068099975586 21.92813682556152 32.86973571777344 21.27826499938965 32.19509887695313 C 20.65615272521973 31.54927444458008 19.82807159423828 31.22635841369629 18.9999942779541 31.22635841369629 C 18.17191696166992 31.22635841369629 17.34384536743164 31.54926872253418 16.72172737121582 32.19509887695313 C 16.07197952270508 32.86960983276367 15.26259994506836 33.17068099975586 14.4683666229248 33.17068099975586 C 12.82393646240234 33.17068099975586 11.24437713623047 31.88009834289551 11.2806396484375 29.94133758544922 L 11.2806396484375 29.94132614135742 C 11.31378555297852 28.16842269897461 9.884475708007813 26.71879577636719 8.119117736816406 26.71879577636719 C 8.098957061767578 26.71879577636719 8.078924179077148 26.7189826965332 8.058677673339844 26.71936225891113 L 8.058664321899414 26.71936225891113 C 8.036903381347656 26.71976852416992 8.01490592956543 26.71997451782227 7.993310928344727 26.71997451782227 C 5.161453247070313 26.71997451782227 3.749515533447266 23.25820159912109 5.804901123046875 21.27827453613281 L 5.804901123046875 21.27826309204102 C 7.096551895141602 20.03403663635254 7.096551895141602 17.96596336364746 5.804901123046875 16.72172546386719 C 3.749641418457031 14.74192047119141 5.161800384521484 11.28019142150879 7.993322372436523 11.28002548217773 C 8.015090942382813 11.2800235748291 8.036741256713867 11.28022766113281 8.058677673339844 11.28063774108887 C 8.078815460205078 11.28101348876953 8.099042892456055 11.28120231628418 8.119096755981445 11.28120231628418 C 9.884603500366211 11.28120231628418 11.31378746032715 9.831687927246094 11.2806396484375 8.058675765991211 C 11.2443904876709 6.120080947875977 12.82411193847656 4.829544067382813 14.4683780670166 4.829315185546875 C 15.26275444030762 4.829204559326172 16.07185745239258 5.130252838134766 16.72172737121582 5.804885864257813 L 16.72172737121582 5.804901123046875 C 17.34384536743164 6.450725555419922 18.17192459106445 6.773637771606445 19 6.773637771606445 C 19.82807731628418 6.773637771606445 20.65615272521973 6.450725555419922 21.27826499938965 5.804901123046875 L 21.27827644348145 5.804885864257813 C 21.92802429199219 5.130378723144531 22.73739624023438 4.829315185546875 23.5316276550293 4.829315185546875 Z" stroke="none" fill="#f2f8ff"/></g></svg>