<svg xmlns="http://www.w3.org/2000/svg" xmlns:xlink="http://www.w3.org/1999/xlink" width="126" height="126" viewBox="0 0 126 126"><defs><filter id="a" x="0" y="0" width="126" height="126" filterUnits="userSpaceOnUse"><feOffset dy="3" input="SourceAlpha"/><feGaussianBlur stdDeviation="3" result="b"/><feFlood flood-opacity="0.102"/><feComposite operator="in" in2="b"/><feComposite in="SourceGraphic"/></filter></defs><g transform="matrix(1, 0, 0, 1, 0, 0)" filter="url(#a)"><g transform="translate(9 6)" fill="none"><path d="M57.781,33.653a4.32,4.32,0,0,1,7.932,3.286h0a4.32,4.32,0,0,0,5.348,5.348h0a4.32,4.32,0,0,1,3.286,7.932h0a4.32,4.32,0,0,0,0,7.563h0a4.32,4.32,0,0,1-3.286,7.932h0a4.32,4.32,0,0,0-5.348,5.348h0a4.32,4.32,0,0,1-7.932,3.286h0a4.32,4.32,0,0,0-7.563,0h0a4.32,4.32,0,0,1-7.932-3.286h0a4.32,4.32,0,0,0-5.348-5.348h0a4.32,4.32,0,0,1-3.286-7.932h0a4.32,4.32,0,0,0,0-7.563h0a4.32,4.32,0,0,1,3.286-7.932h0a4.32,4.32,0,0,0,5.348-5.348h0a4.32,4.32,0,0,1,7.932-3.286h0a4.32,4.32,0,0,0,7.563,0Z" stroke="none"/><path d="M 57.54208755493164 45.43962478637695 C 56.39921569824219 45.73150634765625 55.21044921875 45.88446807861328 53.9999885559082 45.88446807861328 C 52.78953170776367 45.88446807861328 51.60092926025391 45.73154449462891 50.45806121826172 45.43966293334961 C 50.1932487487793 45.88321685791016 49.90284729003906 46.31567764282227 49.58712387084961 46.73533248901367 C 48.44952011108398 48.24742126464844 47.03129196166992 49.50270462036133 45.437255859375 50.4486198425293 C 45.73078536987305 51.59452819824219 45.88447189331055 52.78603744506836 45.88447189331055 54 C 45.88447189331055 55.21396255493164 45.73076629638672 56.40555191040039 45.43723297119141 57.55146408081055 C 47.03125762939453 58.49739074707031 48.44937515258789 59.75262069702148 49.58699035644531 61.26473236083984 C 49.90271759033203 61.68439483642578 50.19309616088867 62.11681747436523 50.45791244506836 62.56037139892578 C 51.60078430175781 62.26848602294922 52.78952407836914 62.11553192138672 53.9999885559082 62.11553192138672 C 55.21045303344727 62.11553192138672 56.39905548095703 62.26845169067383 57.54192352294922 62.56033706665039 C 57.80673980712891 62.11678695678711 58.09714889526367 61.68430709838867 58.41287231445313 61.2646484375 C 59.55047225952148 59.75256729125977 60.96871948242188 58.49728012084961 62.5627555847168 57.55136871337891 C 62.26922607421875 56.40546035766602 62.11553955078125 55.21395874023438 62.11553955078125 54 C 62.11553955078125 52.78604125976563 62.26924896240234 51.59444427490234 62.56278228759766 50.44853591918945 C 60.9687614440918 49.50261688232422 59.55065536499023 48.24739837646484 58.41304016113281 46.73529815673828 C 58.09730911254883 46.31563949584961 57.80690383911133 45.8831787109375 57.54208755493164 45.43962478637695 M 46.53470993041992 31.39752960205078 C 47.93698883056641 31.39743804931641 49.3464469909668 32.07401275634766 50.21852111816406 33.65305328369141 L 50.21854019165039 33.65308380126953 C 51.04002380371094 35.14049530029297 52.52024078369141 35.88446807861328 53.99999618530273 35.88446807861328 C 55.48011779785156 35.88446807861328 56.95978164672852 35.14084625244141 57.78145599365234 33.65306854248047 L 57.78147125244141 33.65305328369141 C 58.65339660644531 32.07428741455078 60.06325149536133 31.39752960205078 61.46529006958008 31.39752960205078 C 64.06586456298828 31.39752960205078 66.64064788818359 33.724365234375 65.71357727050781 36.93863677978516 L 65.71355438232422 36.93866729736328 C 64.89061737060547 39.79193878173828 67.09564971923828 42.46103668212891 69.84369659423828 42.46103668212891 C 70.24088287353516 42.46103668212891 70.64894866943359 42.40538024902344 71.06134033203125 42.28643035888672 L 71.06137084960938 42.28643035888672 C 71.51913452148438 42.15440368652344 71.95894622802734 42.09340667724609 72.37655639648438 42.09340667724609 C 76.47223663330078 42.09335327148438 78.43704986572266 47.95964050292969 74.34695434570313 50.21853256225586 L 74.346923828125 50.21855163574219 C 71.37173461914063 51.86169815063477 71.37173461914063 56.13830184936523 74.346923828125 57.78144836425781 L 74.34698486328125 57.7814826965332 C 78.43680572509766 60.04023742675781 76.47169494628906 65.90660858154297 72.3765869140625 65.90660858154297 C 71.95872497558594 65.90660858154297 71.51947021484375 65.84569549560547 71.0614013671875 65.71358489990234 L 71.06134033203125 65.71356201171875 C 70.64913940429688 65.59468078613281 70.24070739746094 65.53897094726563 69.84369659423828 65.53897094726563 C 67.09536743164063 65.53897094726563 64.89054870605469 68.20787811279297 65.71355438232422 71.06135559082031 L 65.71355438232422 71.06137084960938 C 66.64054107666016 74.27532958984375 64.06560516357422 76.60247039794922 61.46528244018555 76.60247039794922 C 60.0629997253418 76.60247039794922 58.65353775024414 75.92598724365234 57.78145599365234 74.34695434570313 L 57.78145599365234 74.34693145751953 C 56.95987319946289 72.85932922363281 55.47993087768555 72.11553192138672 53.99999237060547 72.11553192138672 C 52.52005386352539 72.11553192138672 51.04011535644531 72.85932922363281 50.21854019165039 74.34693145751953 L 50.21852111816406 74.34695434570313 C 49.34659957885742 75.92571258544922 47.93674468994141 76.60247039794922 46.53470611572266 76.60247039794922 C 43.93413543701172 76.60247039794922 41.35935211181641 74.275634765625 42.28642272949219 71.06137084960938 L 42.28643798828125 71.06133270263672 C 43.10939788818359 68.20806121826172 40.90434265136719 65.53895568847656 38.15628814697266 65.53895568847656 C 37.75910186767578 65.53895568847656 37.35105133056641 65.5946044921875 36.93865966796875 65.71354675292969 L 36.93862152099609 65.71356201171875 C 36.48086547851563 65.84559631347656 36.04106140136719 65.90659332275391 35.62345123291016 65.90659332275391 C 31.52777862548828 65.90659332275391 29.56296539306641 60.04035949707031 33.65303802490234 57.78146743774414 L 33.653076171875 57.78144836425781 C 36.62827301025391 56.13830184936523 36.62827301025391 51.86169815063477 33.653076171875 50.21855163574219 L 33.65303802490234 50.21853256225586 C 29.56324005126953 47.95979309082031 31.52834320068359 42.09414672851563 35.62344360351563 42.09340667724609 C 36.04129791259766 42.09333038330078 36.48056793212891 42.15431976318359 36.93862152099609 42.28643035888672 L 36.93865966796875 42.28643035888672 C 37.35085296630859 42.40531921386719 37.75929260253906 42.46103668212891 38.15629577636719 42.46103668212891 C 40.90462493896484 42.46103668212891 43.10945129394531 39.79212188720703 42.28643798828125 36.93866729736328 L 42.28642272949219 36.93863677978516 C 41.35944366455078 33.72466278076172 43.93438720703125 31.39769744873047 46.53470993041992 31.39752960205078 Z" stroke="none" fill="#f2f8ff"/></g></g></svg>