<svg xmlns="http://www.w3.org/2000/svg" xmlns:xlink="http://www.w3.org/1999/xlink" width="172" height="79" viewBox="0 0 172 79"><defs><radialGradient id="a" cx="0.5" cy="0.5" r="1.36" gradientTransform="matrix(1, 0.031, -0.03, 0.949, 0.015, 0.01)" gradientUnits="objectBoundingBox"><stop offset="0" stop-color="#c5535d"/><stop offset="1" stop-color="#601212"/></radialGradient><filter id="b" x="106.5" y="15.5" width="53" height="53" filterUnits="userSpaceOnUse"><feOffset dy="3" input="SourceAlpha"/><feGaussianBlur stdDeviation="3" result="c"/><feFlood flood-opacity="0.141"/><feComposite operator="in" in2="c"/><feComposite in="SourceGraphic"/></filter></defs><g stroke="#f2f8ff" stroke-width="6" fill="url(#a)"><rect width="172" height="79" rx="14" stroke="none"/><rect x="3" y="3" width="166" height="73" rx="11" fill="none"/></g><circle cx="28.5" cy="28.5" r="28.5" transform="translate(99 11)" fill="#882e33"/><g transform="matrix(1, 0, 0, 1, 0, 0)" filter="url(#b)"><path d="M14.817,5.367a3,3,0,0,1,5.367,0L32.829,30.658A3,3,0,0,1,30.146,35H4.854a3,3,0,0,1-2.683-4.342Z" transform="translate(150.5 21.5) rotate(90)" fill="#fff"/></g><text transform="translate(57 36)" fill="#fff" font-size="20" font-family="Poppins-SemiBold, Poppins" font-weight="600" letter-spacing="0.035em"><tspan x="-34.18" y="0">START </tspan><tspan x="-25.17" y="21">PLAY</tspan></text></svg>